<?xml version="1.0" standalone="no"?>
<!DOCTYPE svg PUBLIC "-//W3C//DTD SVG 20010904//EN"
 "http://www.w3.org/TR/2001/REC-SVG-20010904/DTD/svg10.dtd">
<svg version="1.0" xmlns="http://www.w3.org/2000/svg"
 width="371.000000pt" height="371.000000pt" viewBox="0 0 371.000000 371.000000"
 preserveAspectRatio="xMidYMid meet">
<metadata>
Created by potrace 1.11, written by Peter Selinger 2001-2013
</metadata>
<g transform="translate(0.000000,371.000000) scale(0.100000,-0.100000)"
fill="#000000" stroke="none">
<path d="M1485 3682 c-31 -27 -71 -62 -161 -137 -26 -22 -79 -67 -118 -101
-39 -33 -150 -128 -246 -210 -96 -82 -180 -153 -186 -159 -6 -6 -31 -27 -54
-46 -23 -18 -50 -41 -59 -50 -9 -8 -59 -51 -111 -95 -89 -74 -137 -115 -164
-139 -6 -5 -40 -35 -76 -65 -98 -83 -95 -79 -68 -89 21 -8 597 -212 1057 -374
96 -34 168 -63 160 -65 -8 -2 -81 -18 -164 -35 l-150 -32 -9 -38 c-7 -28 -14
-36 -25 -31 -9 3 -212 75 -451 160 -239 85 -459 164 -488 175 -29 10 -56 19
-61 19 -4 0 0 -42 10 -92 18 -90 35 -182 45 -243 3 -16 12 -62 20 -102 7 -39
17 -88 20 -109 3 -20 7 -46 10 -58 2 -11 15 -82 29 -156 14 -74 27 -146 30
-160 3 -14 8 -38 10 -55 6 -31 24 -132 32 -175 2 -14 10 -56 18 -95 12 -65 21
-113 31 -175 2 -14 9 -45 14 -70 6 -25 12 -54 13 -65 30 -181 28 -177 61 -190
17 -8 344 -124 726 -260 758 -268 827 -293 943 -335 l78 -28 332 283 c183 155
461 392 618 526 157 134 309 264 337 288 29 24 52 46 52 50 0 3 -24 14 -52 24
-29 10 -82 29 -118 42 -36 13 -173 62 -305 109 -979 347 -958 339 -934 349 13
5 33 10 43 13 47 9 148 94 162 136 3 10 9 18 14 18 8 0 134 -44 475 -165 83
-29 213 -76 290 -103 77 -28 216 -77 309 -111 94 -33 171 -59 173 -57 3 3 -14
113 -32 206 -25 130 -74 395 -80 430 -3 19 -10 60 -16 90 -6 30 -12 66 -15 80
-2 14 -9 48 -14 75 -18 91 -20 100 -29 155 -12 71 -39 218 -46 250 -3 14 -12
61 -20 105 -8 44 -16 89 -18 100 -3 11 -10 52 -17 92 -6 39 -17 78 -23 86 -8
10 -1572 572 -1762 633 -5 2 -24 -9 -40 -24z m112 -1575 c10 -10 17 -37 22
-79 1 -4 12 -3 25 1 23 9 24 8 46 -97 12 -59 24 -112 25 -119 2 -6 -34 2 -87
20 -98 33 -103 39 -115 123 -5 37 -3 43 17 49 16 5 20 12 17 28 -3 12 -9 40
-13 61 l-7 39 29 -7 c16 -4 34 -13 41 -19z m494 -180 c9 -13 0 -69 -14 -85
-14 -17 -43 -33 -73 -38 -18 -3 -25 1 -28 18 -3 13 -10 46 -16 73 -6 28 -12
60 -15 72 l-4 22 72 -26 c40 -14 75 -30 78 -36z"/>
</g>
</svg>
